<svg xmlns="http://www.w3.org/2000/svg" version="1.1" xmlns:xlink="http://www.w3.org/1999/xlink" width="512" height="512" x="0" y="0" viewBox="0 0 512 512" style="enable-background:new 0 0 512 512" xml:space="preserve" fill-rule="evenodd" class=""><g><path fill="#000000" d="M240 29s-39 15-46 37c-6 22-1 53-1 53s-9 17-17 41c-6-12-9-26-9-26s3-9 3-33-29-41-29-41c-28 65 19 76 19 76l14 33c-5 18-10 39-10 60v5l-10-13s8-14-11-31c-19-16-41-24-41-24s-6 39 11 59c18 19 36 4 36 4l15 16c2 27 6 44 17 69l-16-5s-1-26-27-35c-25-9-52-3-52-3s11 43 38 55c27 11 40-8 40-8l22 6c9 17 22 34 38 51 2 2 4 5 7 7-7 0-17 1-17 1s-9-22-36-21-51 22-51 22 19 27 52 28 36-20 36-20l23-4c19 16 40 29 60 39l-14 3s-19-16-46-9c-27 8-44 25-44 25s30 30 61 23c30-8 37-31 37-31l17-7c20 9 37 15 47 19 24 9 57 27 60 33 4 6 14-1 9-10s-67-33-92-43c-1-1-3-1-5-2l-3-17s11-12 6-32-16-25-16-25-15 12-13 34 15 25 15 25 3 8 4 13c-14-6-35-15-56-28v-20s23-4 27-32-13-47-13-47-32 20-37 43 13 35 13 35v15c-18-12-35-28-48-47l12-29s46 10 33-61c0 0-36 8-39 29-3 22 2 26 2 26l-12 28s0-1-1-1c-2-3-4-6-5-9l-5-8c-8-15-13-27-17-38l20-19c49-20 52-12 56-70 0 0-44-2-52 24s-9 38-9 38 0 1-8 9c-5 5-8 10-10 12-2-8-3-15-3-22v-8c0-7 1-15 2-23 2-15 6-32 10-48l20-6s9 7 32 1c22-6 33-36 33-36s-1-3-34 0-32 26-32 26l-17 7c6-20 12-36 14-38 4-5 75-12 42-96z" opacity="1" data-original="#2b2a29" class=""></path></g></svg>