<svg width="134" height="24" viewBox="0 0 134 24" fill="none" xmlns="http://www.w3.org/2000/svg">
<g clip-path="url(#clip0_2199_176)">
<path d="M44.1014 22.9863C42.7995 22.3106 41.8948 21.4095 41.3908 20.2799C40.8867 19.1536 40.633 17.8908 40.633 16.4949V16.43H44.0346C44.0346 17.3959 44.2016 18.2116 44.5387 18.8771C44.8759 19.5427 45.42 20.0648 46.1778 20.4403C46.9356 20.8157 47.9637 21.0034 49.2657 21.0034C50.5676 21.0034 51.6391 20.8532 52.417 20.5529C53.1948 20.2526 53.7456 19.8498 54.0694 19.3447C54.3965 18.8396 54.5568 18.2662 54.5568 17.6212C54.5568 16.9761 54.4099 16.4846 54.1161 16.1399C53.8223 15.7952 53.2548 15.5119 52.4136 15.2867C51.5724 15.0614 50.2404 14.8191 48.4111 14.5631C46.4782 14.2833 44.9627 13.9556 43.8577 13.5802C42.7561 13.2048 41.9316 12.6416 41.3841 11.8908C40.8366 11.1399 40.5662 10.099 40.5662 8.7645C40.5662 7.43003 40.9134 6.30033 41.6044 5.30033C42.2988 4.30033 43.2902 3.529 44.5821 2.98293C45.874 2.43685 47.4129 2.1604 49.1989 2.1604C51.1952 2.1604 52.8109 2.4505 54.0493 3.03071C55.2878 3.61091 56.1858 4.45733 56.7433 5.57678C57.3008 6.69282 57.5779 8.09897 57.5779 9.79521H54.1762C54.1762 8.72013 53.9926 7.85323 53.6254 7.1877C53.2582 6.52218 52.7074 6.01706 51.973 5.67235C51.2386 5.33105 50.3339 5.15699 49.2623 5.15699C48.1908 5.15699 47.3495 5.29692 46.6151 5.57678C45.8807 5.85665 45.3065 6.24231 44.8993 6.73719C44.4886 7.23207 44.285 7.77815 44.285 8.37883C44.285 9.12968 44.4219 9.69282 44.6956 10.0683C44.9694 10.4437 45.5135 10.7508 46.3347 10.9863C47.1526 11.2218 48.4678 11.471 50.2738 11.727C52.2467 11.9863 53.7923 12.3072 54.9039 12.6928C56.0156 13.0785 56.8568 13.6382 57.4243 14.3686C57.9918 15.099 58.2756 16.1092 58.2756 17.3959C58.2756 18.6826 58.0018 19.7577 57.4577 20.744C56.9102 21.7338 55.9722 22.5222 54.6369 23.1126C53.3016 23.7031 51.5123 23.9966 49.2657 23.9966C47.019 23.9966 45.4 23.6587 44.0981 22.9829L44.1014 22.9863Z" fill="#3E3E3E"/>
<path d="M60.2685 1.35495H63.767V16.1399H63.797L72.2094 7.76451H76.7761L69.4052 14.7235L77.1566 23.6792H72.3663L66.8849 17.0102L63.767 19.9079V23.6758H60.2685V1.35495Z" fill="#3E3E3E"/>
<path d="M78.769 2.38568H82.391V5.89763H78.769V2.38568ZM78.8291 7.76452H82.3275V23.6758H78.8291V7.76452Z" fill="#3E3E3E"/>
<path d="M85.836 1.35495H89.3345V23.6758H85.836V1.35495Z" fill="#3E3E3E"/>
<path d="M92.1453 1.35495H95.6437V23.6758H92.1453V1.35495Z" fill="#3E3E3E"/>
<path d="M98.9453 2.38568H102.567V5.89763H98.9453V2.38568ZM99.0087 7.76452H102.507V23.6758H99.0087V7.76452Z" fill="#3E3E3E"/>
<path d="M104.944 21.4232L113.513 10.7952V10.6997H105.228V7.76791H118.147V9.98976L109.544 20.7167V20.7474H118.147V23.6792H104.947V21.4232H104.944Z" fill="#3E3E3E"/>
<path d="M122.55 22.9522C121.341 22.2969 120.413 21.3618 119.762 20.1502C119.112 18.9386 118.784 17.5051 118.784 15.8498C118.784 14.1946 119.112 12.7031 119.762 11.4369C120.413 10.1707 121.341 9.19796 122.55 8.5222C123.758 7.84643 125.18 7.50854 126.819 7.50854C128.268 7.50854 129.54 7.80889 130.632 8.40957C131.723 9.01025 132.558 9.88056 133.135 11.0171C133.713 12.157 134.003 13.529 134.003 15.1399V16.3959H120.046L120.11 14.2389H130.852V14.0137C130.852 13.2184 130.695 12.5427 130.378 11.9829C130.064 11.4232 129.607 11 129.006 10.7099C128.405 10.4198 127.687 10.2765 126.85 10.2765C125.861 10.2765 125.037 10.4847 124.376 10.9044C123.715 11.3242 123.204 11.9454 122.847 12.7713C122.49 13.5973 122.313 14.6246 122.313 15.8464C122.313 16.9625 122.496 17.9181 122.864 18.7133C123.231 19.5085 123.752 20.1161 124.423 20.5324C125.094 20.9522 125.905 21.1604 126.85 21.1604C127.604 21.1604 128.278 21.0376 128.866 20.7884C129.453 20.5427 129.917 20.2048 130.251 19.7748C130.588 19.3447 130.785 18.8396 130.849 18.2594H134C133.98 19.4198 133.66 20.43 133.039 21.2867C132.418 22.1468 131.573 22.8021 130.502 23.2526C129.43 23.7031 128.192 23.9283 126.783 23.9283C125.164 23.9283 123.752 23.6007 122.547 22.9454L122.55 22.9522Z" fill="#3E3E3E"/>
<path d="M12.5618 0.481232L7.86488 8.79864C7.61117 9.24915 8.06517 9.76792 8.52918 9.56314L12.4015 7.84983C13.0191 7.5768 13.7235 7.5768 14.341 7.84983L18.2134 9.56314C18.6807 9.76792 19.1314 9.24915 18.8777 8.79864L14.1842 0.481232C13.8236 -0.156993 12.919 -0.156993 12.5584 0.481232H12.5618Z" fill="#3E3E3E"/>
<path d="M14.1842 20.628L18.8811 12.3106C19.1348 11.8601 18.6808 11.3413 18.2168 11.5461L14.3444 13.2594C13.7268 13.5324 13.0225 13.5324 12.4049 13.2594L8.53255 11.5461C8.0652 11.3413 7.61454 11.8601 7.86825 12.3106L12.5651 20.628C12.9257 21.2662 13.8303 21.2662 14.1909 20.628H14.1842Z" fill="#3E3E3E"/>
<path d="M0.938019 23.8464H10.3318C10.8392 23.8464 11.0529 23.1843 10.6456 22.8737L7.25729 20.3003C6.7165 19.8908 6.36598 19.2662 6.28587 18.5836L5.80182 14.2969C5.74507 13.7816 5.07743 13.6382 4.82038 14.0887L0.126828 22.4061C-0.233701 23.0444 0.21696 23.8464 0.938019 23.8464Z" fill="#3E3E3E"/>
<path d="M25.8079 23.8464H16.4141C15.9067 23.8464 15.693 23.1843 16.1003 22.8737L19.4886 20.3003C20.0294 19.8908 20.3799 19.2662 20.46 18.5836L20.9441 14.2969C21.0008 13.7816 21.6685 13.6382 21.9255 14.0887L26.6224 22.4061C26.9829 23.0444 26.5323 23.8464 25.8112 23.8464H25.8079Z" fill="#3E3E3E"/>
</g>
<defs>
<clipPath id="clip0_2199_176">
<rect width="134" height="24" fill="white"/>
</clipPath>
</defs>
</svg>
